<?xml version="1.0" standalone="no"?>
<!DOCTYPE svg PUBLIC "-//W3C//DTD SVG 20010904//EN"
 "http://www.w3.org/TR/2001/REC-SVG-20010904/DTD/svg10.dtd">
<svg version="1.0" xmlns="http://www.w3.org/2000/svg"
 width="905.000000pt" height="1280.000000pt" viewBox="0 0 905.000000 1280.000000"
 preserveAspectRatio="xMidYMid meet">
<metadata>
Created by potrace 1.15, written by Peter Selinger 2001-2017
</metadata>
<g transform="translate(0.000000,1280.000000) scale(0.100000,-0.100000)"
fill="#000000" stroke="none">
<path d="M3475 11038 c-1144 -44 -2169 -637 -2581 -1493 -145 -302 -206 -576
-206 -930 0 -322 51 -557 174 -797 61 -119 122 -202 222 -296 79 -75 218 -173
316 -222 390 -195 883 -234 1267 -99 413 146 660 452 703 872 43 424 -179 881
-528 1090 -212 128 -398 151 -777 96 -197 -28 -363 -31 -427 -6 -92 36 -148
135 -148 263 0 351 497 760 1160 955 834 245 1558 51 1990 -532 276 -372 440
-866 491 -1476 17 -211 7 -699 -20 -928 -113 -946 -405 -1755 -915 -2530 -622
-945 -1492 -1754 -2971 -2765 -375 -256 -437 -303 -545 -410 -127 -126 -161
-182 -168 -281 -4 -58 -1 -73 18 -103 40 -66 110 -86 213 -62 178 41 532 217
1072 533 365 213 1100 653 1300 777 654 406 1288 868 1758 1279 193 169 561
533 710 704 821 941 1262 1909 1337 2938 49 680 -99 1345 -421 1887 -558 940
-1581 1513 -2749 1541 -58 1 -181 -1 -275 -5z"/>
<path d="M7810 10086 c-206 -43 -380 -176 -469 -358 -58 -118 -75 -192 -75
-323 0 -132 17 -206 76 -325 34 -68 60 -103 133 -175 98 -98 167 -144 272
-180 190 -66 365 -55 553 37 69 33 102 58 170 127 198 198 257 460 165 724
-36 103 -81 173 -175 268 -71 72 -100 93 -180 132 -52 26 -122 54 -155 62 -86
22 -237 27 -315 11z"/>
<path d="M7776 7444 c-80 -19 -189 -73 -258 -129 -109 -85 -195 -221 -234
-365 -24 -89 -24 -272 0 -359 39 -142 132 -285 245 -375 86 -69 139 -99 236
-132 72 -25 94 -28 215 -28 104 -1 149 4 195 18 238 74 417 258 481 496 23 86
24 252 1 340 -38 144 -131 290 -247 386 -73 60 -218 131 -305 149 -88 18 -251
18 -329 -1z"/>
</g>
</svg>
